<svg id="Layer_1" xmlns="http://www.w3.org/2000/svg" viewBox="0 0 82.9 124.5"><style>.st0{fill:#231f20}</style><title>Panda_WWF_whitebackground</title><path class="st0" d="M29.1 101.7c-.7 0-1.4.5-1.6 1.1l-3.4 8.4-.3 1-.3-1L21 103v-.1c-.3-.7-.9-1.2-1.7-1.2h-4.2c-.9.1-1.7.8-1.7 1.8 0 .3.1.6.2.9l.5 1.7-2 5.1-.3 1-.3-1L9 103v-.1c-.2-.7-.9-1.2-1.6-1.2H3.1c-.9 0-1.7.8-1.7 1.8 0 .3.1.6.2.9L7.9 123c.3.9 1.2 1.5 2.2 1.2.6-.2 1-.6 1.2-1.1l4.4-11 .3-1 .3 1L20 123c.3.9 1.2 1.5 2.2 1.2.6-.2 1.1-.6 1.2-1.2l7.4-18.8c.4-.9.1-1.9-.8-2.4-.4-.1-.6-.1-.9-.1M60.2 101.7c-.7 0-1.4.5-1.6 1.1l-3.3 8.4-.3 1-.3-1-2.5-8.2v-.1c-.2-.7-.9-1.2-1.7-1.2h-4.2c-.9 0-1.7.8-1.7 1.8 0 .3.1.6.2.9l.6 1.7-2 5.1-.3 1-.3-1-2.6-8.2v-.1c-.2-.7-.9-1.2-1.7-1.2h-4.2c-.9 0-1.7.8-1.7 1.8 0 .3.1.6.2.9L39 123c.2.9 1.2 1.5 2.1 1.3.6-.2 1.1-.6 1.2-1.2l4.4-11 .3-1 .3 1L51 123c.3.9 1.2 1.5 2.2 1.2.6-.2 1.1-.6 1.2-1.2l7.4-18.8c.1-.2.2-.5.2-.8 0-.9-.8-1.7-1.8-1.7M80.4 101.7H65.8c-.8 0-1.5.7-1.5 1.5v19.4c0 .9.8 1.6 1.6 1.6H70c.9 0 1.6-.7 1.6-1.6v-9h5.9c.9 0 1.6-.7 1.6-1.6 0-.9-.7-1.6-1.6-1.6h-5.9v-5.2h8.8c.9 0 1.7-.8 1.7-1.7 0-1.1-.7-1.8-1.7-1.8M57.8 40c2.7 3 2.9 11.8 9.6 8.3 4-2.1 3.9-11-1.4-14.2-4.3-2.6-6.7.9-8.3 5.1-.1.2-.1.6.1.8M47.4 38.6c-2.8 2.3-4.7 8.6-9.8 6.5-4.1-2.1-4.5-10.3 2.6-14.1 5-2.3 7.5 2.2 7.5 7 0 .2-.1.4-.3.6M54.3 54.7c2.8-.3 2.1-2.8.1-3.5-2.2-.6-4.4-.9-6.7-.9-3.5.1-3.4 2.8-1.6 3.2 1.4.3 2.6 1.1 3.5 2.2 1.1 2.3.6-.5 4.7-1M67.3 9.1c3.5-5.8 9.5-4.6 12.5-1.8 3.3 3.1 3.8 6.7 2.5 9.2-1.7 3.4-6.2 7.5-9 3.5-1.5-1.9-3.3-3.4-5.4-4.5-2.3-.8-2.7-2.9-.6-6.4"/><path class="st0" d="M54.6 60.8c-1.5 4-9.3 2.6-9.6-1.2 0-.2.2-.1.3-.1 2.9.7 6 1.1 9 1.2.1-.1.3-.1.3.1M81 34.5c-.3-1-.8-1-.8-.1.3 10.5-6 21.7-19.4 21.8-3.4 0-2.4 5.5-8.7 2.8-4.5-3-7.1 2.9-10.3-3.5-.4-1.5-1.6-2.6-3.1-2.9C25.5 49.2 21.3 31 33 16.2c2.3 1.4 3.1 1.6 5.6-.7 1.4-1.2 2.9-2.2 4.6-2.9 2.8-1.1 4.3-2.2 1.9-7.6-3.1-7-9.5-5-12.4-2.5-3.3 2.7-5.6 7.1-1.4 12.2-11.9 8-13.9 17.8-13.6 26.4.3 9.1-2 8.3.8 17.5.2.8-.3.8-.8.5-12.4-7.9-19-32 .2-45.3.4-.4.3-.9-1.3 0C.1 22.6-1.4 39.7 1.3 51.2c1.4 5.6-.7 6.6 1.5 13.9C7.8 80.4 12 81.6 17.9 82c10.9 0 3.5-6 3.9-13.5 0-.4.5-.7.8.3 6 13.4 10.2 25.6 26 24.5 9.1-1.2 4-5.7 3.5-8.3-6.7-22.2 9.6-27.5 5-5.8-3 12.4 6.6 11.2 13.3 6.7 7-4.6 15.7-34.8 10.6-51.4"/><path class="st0" d="M16.7 84.2c-1.9 0-3.5 1.6-3.5 3.5s1.6 3.5 3.5 3.5 3.5-1.6 3.5-3.5-1.5-3.5-3.5-3.5m2.9 3.5c0 1.6-1.3 2.9-2.9 2.9s-2.9-1.3-2.9-2.9c0-1.6 1.3-2.9 2.9-2.9 1.6 0 2.9 1.3 2.9 2.9"/><path class="st0" d="M17.7 88.2c-.1.4-.5.7-.9.7-.6 0-1.1-.6-1.1-1.2v-.1c-.1-.6.3-1.1.9-1.2h.2c.4 0 .8.3.9.7h.5c-.1-.7-.7-1.2-1.4-1.2-.9 0-1.6.6-1.7 1.5v.2c-.1.9.6 1.7 1.5 1.8h.2c.7 0 1.3-.5 1.4-1.2h-.5zM78.1 92.5c-1.9 0-3.5 1.6-3.5 3.5s1.6 3.5 3.5 3.5 3.5-1.6 3.5-3.5-1.6-3.5-3.5-3.5M81 96c0 1.6-1.3 2.9-2.9 2.9s-2.9-1.3-2.9-2.9 1.3-2.9 2.9-2.9S81 94.4 81 96"/><path class="st0" d="M77.5 95.8v-1h.7c.3 0 .7.1.7.5s-.4.5-.8.5h-.6zm0 .4h.5l.9 1.4h.6l-.9-1.4c.5 0 .9-.4.9-.9s-.4-.9-.9-1H77v3.3h.5v-1.4z"/></svg>