<svg xmlns="http://www.w3.org/2000/svg" viewBox="0 0 442.91 143.91"><title>Røde Kors</title><rect class="cls-1" fill="#fff" width="442.91" height="143.91"/><path class="cls-2" fill="#282929" d="M152.85,47.05a79.71,79.71,0,0,1,12-.83c5.92,0,10.06.89,12.9,3.14a10.14,10.14,0,0,1,3.67,8.35,10.6,10.6,0,0,1-7,9.83v.17c2.78,1.13,4.32,3.79,5.33,7.46,1.24,4.5,2.48,9.71,3.25,11.25h-9.23c-.65-1.12-1.66-4.38-2.79-9.29s-2.78-6.4-6.45-6.4h-2.72V86.42h-8.94Zm8.94,17.17h3.55c4.5,0,7.16-2.25,7.16-5.74,0-3.67-2.48-5.51-6.63-5.57a22.16,22.16,0,0,0-4.08.3Z"/><path class="cls-2" fill="#282929" d="M201.16,56.82a15,15,0,0,1,7,1.54l2.78-4.08,3.14,2.19-2.66,4a14.59,14.59,0,0,1,4.85,11.43c0,10.3-7.58,15.21-15.09,15.21a14.59,14.59,0,0,1-6.87-1.54l-2.9,4.21-3-2.37,2.6-3.85c-3.14-2.55-5-6.45-5-11.54,0-9.12,6.16-15.16,15.1-15.16Zm3.19,7.46a5.18,5.18,0,0,0-3.19-1.06c-4.68,0-6.46,4.67-6.46,8.7a9.34,9.34,0,0,0,1.07,4.62l.12,0Zm-6.21,15.28a4.32,4.32,0,0,0,3,1.06c4,0,6.45-3.43,6.45-8.52a10.89,10.89,0,0,0-.89-4.5l-.18-.06Z"/><path class="cls-2" fill="#282929" d="M249.82,44.39V77.78c0,3.25.11,6.69.23,8.64h-8l-.41-4.26h-.12a10.1,10.1,0,0,1-9.06,4.91c-6.87,0-12.37-5.86-12.37-14.86,0-9.76,6-15.39,13-15.39,3.56,0,6.34,1.24,7.64,3.26h.12V44.39Zm-9,25.34a14.18,14.18,0,0,0-.12-1.6,5.4,5.4,0,0,0-5.27-4.44c-4.08,0-6.22,3.67-6.22,8.23,0,4.91,2.43,8,6.16,8a5.27,5.27,0,0,0,5.21-4.32,7.54,7.54,0,0,0,.24-2.07Z"/><path class="cls-2" fill="#282929" d="M264,74.76c.29,3.73,4,5.51,8.17,5.51a25.52,25.52,0,0,0,8-1.19l1.18,6.1A28.63,28.63,0,0,1,270.83,87c-9.82,0-15.45-5.74-15.45-14.8,0-7.34,4.56-15.45,14.62-15.45,9.36,0,12.91,7.28,12.91,14.45a21.92,21.92,0,0,1-.3,3.61Zm10.59-6.16c0-2.19-.94-5.86-5.09-5.86-3.79,0-5.33,3.49-5.56,5.86Z"/><path class="cls-2" fill="#282929" d="M300.55,46.52h8.94V64.16h.18c.89-1.54,1.77-3,2.72-4.38l9.06-13.26h11.07l-13.2,17,13.91,22.91H322.69l-9.77-17.23-3.43,4.21v13h-8.94Z"/><path class="cls-2" fill="#282929" d="M348.74,87.07c-8.47,0-15-5.56-15-14.92s6.16-15.33,15.45-15.33c8.88,0,14.8,6.1,14.8,14.8,0,10.6-7.52,15.45-15.21,15.45Zm.18-6.45c3.49,0,5.74-3.49,5.74-8.7,0-4.32-1.66-8.7-5.74-8.7-4.33,0-5.92,4.43-5.92,8.7,0,5,2.07,8.7,5.86,8.7Z"/><path class="cls-2" fill="#282929" d="M369.58,67c0-4.26-.12-7-.24-9.53h7.75l.3,5.33h.24a8.51,8.51,0,0,1,7.81-6,9.25,9.25,0,0,1,1.9.12v8.47a14,14,0,0,0-2.49-.24c-3.32,0-5.57,1.77-6.16,4.56a10.47,10.47,0,0,0-.17,2V86.42h-9Z"/><path class="cls-2" fill="#282929" d="M392,78.55a17.55,17.55,0,0,0,7.76,2.19c2.72,0,3.85-.95,3.85-2.43s-.89-2.25-4.27-3.31c-6-2-8.23-5.27-8.23-8.71,0-5.38,4.56-9.47,11.79-9.47A19.42,19.42,0,0,1,411,58.48l-1.6,6.22A14.12,14.12,0,0,0,403.14,63c-2.19,0-3.43.89-3.43,2.37s1.12,2.13,4.68,3.31c5.5,1.9,7.81,4.68,7.87,8.94,0,5.39-4.26,9.41-12.55,9.41A20.56,20.56,0,0,1,390.35,85Z"/><rect class="cls-3" fill="#d52d27" x="57.56" y="28.64" width="28.88" height="86.64"/><rect class="cls-3" fill="#d52d27" x="28.68" y="57.52" width="86.64" height="28.88"/></svg>